<?xml version="1.0" standalone="no"?>
<!DOCTYPE svg PUBLIC "-//W3C//DTD SVG 20010904//EN"
 "http://www.w3.org/TR/2001/REC-SVG-20010904/DTD/svg10.dtd">
<svg version="1.0" xmlns="http://www.w3.org/2000/svg"
 width="155.000000pt" height="206.000000pt" viewBox="0 0 155.000000 206.000000"
 preserveAspectRatio="xMidYMid meet">

<g transform="translate(0.000000,206.000000) scale(0.100000,-0.100000)"
fill="#ffffff" stroke="none">
<path d="M703 1885 c-291 -79 -494 -366 -494 -700 1 -211 74 -381 216 -498 75
-62 137 -96 226 -126 l65 -21 -4 -178 c-2 -97 1 -197 5 -222 7 -39 12 -45 33
-45 l25 0 -4 160 c-2 88 0 186 4 218 l8 59 31 -5 c82 -13 232 41 296 106 30
31 58 81 77 138 4 15 33 47 64 72 68 56 123 136 158 231 24 65 26 84 26 216
-1 124 -4 154 -24 210 -70 201 -228 352 -409 389 -73 15 -236 13 -299 -4z
m345 -81 c84 -33 114 -54 179 -121 78 -80 139 -222 150 -349 5 -65 -9 -193
-25 -218 -3 -6 -8 -20 -9 -31 -8 -49 -124 -202 -144 -189 -5 3 -9 20 -9 39 0
26 -9 44 -38 75 -36 37 -43 40 -91 40 -38 0 -62 -7 -92 -26 -53 -33 -123 -109
-146 -156 -10 -21 -21 -38 -24 -38 -20 0 -95 33 -132 59 -74 51 -104 84 -143
156 -36 68 -38 73 -38 175 -1 89 3 114 24 169 74 189 247 245 419 137 125 -79
128 -225 6 -364 -47 -53 -116 -100 -171 -117 -34 -10 -47 -10 -73 1 -17 7 -31
20 -31 29 0 8 -4 15 -10 15 -5 0 -10 15 -10 33 l0 32 68 1 c107 0 174 48 203
142 10 35 10 45 -4 66 -52 79 -257 4 -318 -117 -26 -50 -29 -149 -6 -194 51
-98 147 -116 271 -50 176 93 284 303 232 449 -41 114 -183 200 -336 201 -78 0
-123 -15 -193 -67 -29 -21 -82 -90 -104 -136 -39 -79 -53 -222 -33 -331 29
-151 166 -305 304 -340 40 -10 46 -14 40 -31 -3 -11 -7 -26 -9 -32 -6 -33 -19
-73 -27 -88 -8 -16 -13 -16 -76 8 -100 37 -150 70 -222 144 -83 85 -124 167
-146 291 -58 338 144 675 454 754 86 22 225 13 310 -21z m-208 -489 c0 -23
-65 -82 -97 -87 -15 -2 -39 -1 -52 2 l-23 5 30 27 c61 54 142 85 142 53z m265
-355 c8 -9 18 -40 22 -68 7 -60 -4 -69 -100 -80 -86 -10 -147 -4 -147 13 0 26
85 120 128 142 46 23 72 21 97 -7z m-7 -241 c-12 -22 -37 -51 -55 -65 -54 -41
-157 -71 -227 -65 -16 1 -18 7 -13 37 3 20 13 55 22 77 l16 42 107 1 c59 0
118 5 132 11 38 16 43 6 18 -38z"/>
</g>
</svg>
